PathFileType	4	(X/Y/Z)	/Users/niels/Desktop/University/Third Semester/Perception and Action/Exam/Gymnastics Motion Tracking/Code for Gym Tracking/Analyzed Data/Start Salto/stsalto_bad_id11_1_Sports2D/stsalto_bad_id11_1_Sports2D_px_person00.trc
DataRate	CameraRate	NumFrames	NumMarkers	Units	OrigDataRate	OrigDataStartFrame	OrigNumFrames
29.850746268656717	29.850746268656717	10	22	m	29.850746268656717	75	201
Frame#	Time	Hip			RHip			RKnee			RAnkle			RBigToe			RSmallToe			RHeel			LHip			LKnee			LAnkle			LBigToe			LSmallToe			LHeel			Neck			Head			Nose			RShoulder			RElbow			RWrist			LShoulder			LElbow			LWrist		
		X1	Y1	Z1	X2	Y2	Z2	X3	Y3	Z3	X4	Y4	Z4	X5	Y5	Z5	X6	Y6	Z6	X7	Y7	Z7	X8	Y8	Z8	X9	Y9	Z9	X10	Y10	Z10	X11	Y11	Z11	X12	Y12	Z12	X13	Y13	Z13	X14	Y14	Z14	X15	Y15	Z15	X16	Y16	Z16	X17	Y17	Z17	X18	Y18	Z18	X19	Y19	Z19	X20	Y20	Z20	X21	Y21	Z21	X22	Y22	Z22
75	2.5125	0.6277406600163745	-0.43464048792248	0.0	0.6233607767195195	-0.4328758180454105	0.0	0.6357704968312871	-0.5781915957522716	0.0	0.5263980886034975	-0.6695400580256867	0.0	0.5421543371702812	-0.7275500024571204	0.0	0.5334168699443783	-0.7229138430793175	0.0	0.5036188656052274	-0.6711713801005211	0.0	0.6336674229366712	-0.43659526766701306	0.0	0.6395921730918716	-0.5779736714192153	0.0	0.5412385536465716	-0.6674545870234081	0.0	0.5498932635129468	-0.7228838768773812	0.0	0.5537175411911514	-0.7154699956993538	0.0	0.5208650025522434	-0.6716698036110718	0.0	0.7988642087208443	-0.4115813521247906	0.0	0.8842099616899936	-0.4214766205675866	0.0	0.8378017484069694	-0.4452395854651371	0.0	0.7842583558135428	-0.4192198419640038	0.0	0.7739124491440184	-0.5066221009457369	0.0	0.8124159528716166	-0.5807515343188985	0.0	0.7881799970990507	-0.4037635846773964	0.0	0.7910985579700798	-0.5028336687429872	0.0	0.8210098079414868	-0.572296835478356	0.0
76	2.5460000000000003	0.6361419179735454	-0.4289475705249508	0.0	0.6321342338125416	-0.42803195367839425	0.0	0.642878015773796	-0.5725035382633284	0.0	0.528884470696532	-0.6564612507201155	0.0	0.5409476825083276	-0.7152511724539791	0.0	0.5329487134496823	-0.7105649895157047	0.0	0.5054468413803338	-0.6572829724226158	0.0	0.6402352944349406	-0.4300184976700146	0.0	0.6443343649110601	-0.5713928222739267	0.0	0.5428160760607406	-0.6558697072476366	0.0	0.5482990089539304	-0.712582023806863	0.0	0.5529063121485385	-0.7064942057182324	0.0	0.5220161208734057	-0.6594072374977846	0.0	0.8078661302728344	-0.41497314337632984	0.0	0.891455543572723	-0.43261198215951285	0.0	0.8432927153633024	-0.45198741728718284	0.0	0.7930775549180796	-0.42179246619299865	0.0	0.7749009200473337	-0.5073847466318404	0.0	0.8127972583664492	-0.5813492143067827	0.0	0.7962094991675266	-0.4041332238956831	0.0	0.7883291081492177	-0.5034924411273721	0.0	0.8161503029800822	-0.5716691205190081	0.0
77	2.5795000000000003	0.6448038971324208	-0.42309995899108843	0.0	0.6411267675344745	-0.4233058064734535	0.0	0.6498668150055313	-0.5668908476018103	0.0	0.5317791731346372	-0.6429629284819927	0.0	0.5398746983190276	-0.7026301103134205	0.0	0.5327428823291221	-0.6979518089758016	0.0	0.5079401083212969	-0.6428620592894984	0.0	0.646989782492835	-0.42327477168791905	0.0	0.6490031244765819	-0.5644444992492255	0.0	0.5443667799136118	-0.6437887262002318	0.0	0.5466738576028759	-0.7015501649019328	0.0	0.5518056537401681	-0.6964756049278406	0.0	0.5229940211302374	-0.6464065741310644	0.0	0.8163334816467285	-0.4185353435444352	0.0	0.8978018774673133	-0.4446354171177119	0.0	0.8478853705246965	-0.45858002700691747	0.0	0.8016374523166986	-0.42406879632029504	0.0	0.7759697374288982	-0.5078222709958357	0.0	0.8134636725837102	-0.5814628130184056	0.0	0.8041230608882601	-0.4050267037934241	0.0	0.7852704094594166	-0.5036732026789522	0.0	0.8115203116310802	-0.5698610581455988	0.0
78	2.613	0.6536087102527202	-0.4172864842617616	0.0	0.6500058674397078	-0.41858635879566547	0.0	0.6566692527195095	-0.5614448138841106	0.0	0.5349774253496281	-0.6291799092229027	0.0	0.5389391003022225	-0.6898106384235367	0.0	0.5325556651362724	-0.6851193934726425	0.0	0.5109732815447402	-0.6278130247909115	0.0	0.6543168909265347	-0.4168011573828244	0.0	0.6541330683418893	-0.5574126949897437	0.0	0.5463350935961943	-0.6314653354792181	0.0	0.5453157126954505	-0.6897660690853729	0.0	0.5506702013796311	-0.6854668711297495	0.0	0.5244169659793348	-0.6329197042949464	0.0	0.8241943467435837	-0.42231960898709975	0.0	0.9031959385274574	-0.45678215594283184	0.0	0.8517443283888546	-0.46483030784774587	0.0	0.8098325944964442	-0.4262688135149789	0.0	0.7770696353403318	-0.5080207516702542	0.0	0.8141523146237362	-0.5816113759492234	0.0	0.8119807986444154	-0.40709011895451686	0.0	0.7827866190349066	-0.5036453446097745	0.0	0.8077493304533049	-0.567705170292492	0.0
79	2.6465	0.6624447872304217	-0.41170201205932844	0.0	0.6585899379473186	-0.4138539052324837	0.0	0.6632546927668708	-0.556184525970841	0.0	0.5383686154367603	-0.615131160089282	0.0	0.5381423056880442	-0.6768233178318067	0.0	0.5322140148429375	-0.6719711057013751	0.0	0.5143712214518134	-0.6120444628811484	0.0	0.6624627668440839	-0.41102119569827195	0.0	0.6600846855640058	-0.5506066199663868	0.0	0.5492888069846669	-0.6192214604886899	0.0	0.5446168781734084	-0.6773100032253446	0.0	0.549941247628252	-0.6736831156469939	0.0	0.5270195722968843	-0.619388539711547	0.0	0.8314560040547448	-0.4263116131239447	0.0	0.907648309475145	-0.4682382165986011	0.0	0.8550007588159543	-0.47068615706919603	0.0	0.8175816300756801	-0.4285719116774561	0.0	0.7782054251429334	-0.5080401427485732	0.0	0.8146895739485369	-0.5821137772150481	0.0	0.8196953195022414	-0.41049192931439765	0.0	0.7813404508437509	-0.5036885624690617	0.0	0.8052556388091874	-0.5658450451890147	0.0
80	2.68	0.671231110364816	-0.40651737927136766	0.0	0.6668856288870334	-0.4092176242555349	0.0	0.6695618538710617	-0.551099976932073	0.0	0.5419102036808562	-0.6008493322382672	0.0	0.5374575203580182	-0.6636692475567966	0.0	0.5316612757332287	-0.6583231917510043	0.0	0.5180027620161922	-0.5957362444852802	0.0	0.6713699923670047	-0.40618652453061127	0.0	0.6668050272147656	-0.5442535322557395	0.0	0.5535666478236249	-0.6073284720957872	0.0	0.5448463870295152	-0.664357612331521	0.0	0.5500029408935635	-0.6614006752315358	0.0	0.5313225749208376	-0.6063452455716773	0.0	0.838143337631412	-0.4304530215440009	0.0	0.9111307572845404	-0.47843442348206405	0.0	0.8576625664860579	-0.4761871785165697	0.0	0.8247645556352957	-0.4310695966928784	0.0	0.7794601385647858	-0.5079064431199577	0.0	0.8149956584160517	-0.5829830584959207	0.0	0.8270914394759984	-0.4149091384577465	0.0	0.7811459967040747	-0.5040269042927698	0.0	0.8042778139662307	-0.5646323788567686	0.0
81	2.7135000000000002	0.680000435804197	-0.4018135372158636	0.0	0.6750834017802938	-0.40484142623653946	0.0	0.6755908606365411	-0.5461976328788587	0.0	0.5456917302199207	-0.5864121953830707	0.0	0.5368706105850805	-0.6503206647841958	0.0	0.5309756925166679	-0.643953434747951	0.0	0.5218896780536074	-0.5793169161611669	0.0	0.6807512652983487	-0.40226190641393206	0.0	0.6739102986382965	-0.5384253326697833	0.0	0.5590649498519461	-0.5958013422214039	0.0	0.5460561871198615	-0.6509946429470922	0.0	0.5509859046300548	-0.6487631297347017	0.0	0.5373583963377413	-0.5940943603540404	0.0	0.8442608672896936	-0.434692874653109	0.0	0.9136662252038775	-0.4873494885989605	0.0	0.8597307234417616	-0.4814826197089112	0.0	0.8313520433915066	-0.43371686542936544	0.0	0.7810220466440707	-0.5076080076509035	0.0	0.8150454408728458	-0.5839759972388621	0.0	0.8340118028790893	-0.4198082446276437	0.0	0.782236627464156	-0.5047135457821132	0.0	0.8046758447120397	-0.5641599486259843	0.0
82	2.7470000000000003	0.6888706983405872	-0.3975312158345763	0.0	0.6834244562359737	-0.40081149809622707	0.0	0.6814340777000335	-0.5415080948711214	0.0	0.5497989477145786	-0.5719686298546944	0.0	0.5363887259376565	-0.6367757569566047	0.0	0.5302995761285957	-0.6287899877250238	0.0	0.526115424069253	-0.5632774105347299	0.0	0.690279521287155	-0.39901564335091866	0.0	0.680961307071686	-0.5331052177817613	0.0	0.56537717944404	-0.5844789902184322	0.0	0.5481672152688737	-0.6372683194129319	0.0	0.5528295622364622	-0.6358553618053834	0.0	0.5446614425612522	-0.5826289792555502	0.0	0.8498318740390011	-0.43896699131324046	0.0	0.9154452512547513	-0.49543492155257673	0.0	0.8613363052789343	-0.48679834530592764	0.0	0.8375243847778967	-0.4363206726814909	0.0	0.7831610044819397	-0.5071816537081975	0.0	0.8148644677485701	-0.5847406698503983	0.0	0.8403960064704241	-0.42479358684321517	0.0	0.7844939849414085	-0.5056613934558962	0.0	0.80596885691053	-0.5643589804399843	0.0
83	2.7805	0.6978789083917601	-0.39351584132702483	0.0	0.6920225388321349	-0.3970753022719378	0.0	0.6871854986620156	-0.5370737878814676	0.0	0.5542033163605321	-0.5577927357990374	0.0	0.5360986489883073	-0.6231330307440959	0.0	0.5298379720021795	-0.6130857805178064	0.0	0.5307224159794764	-0.548054234137251	0.0	0.6996836540927683	-0.39619424037732365	0.0	0.6876730539852585	-0.5282960385867717	0.0	0.5720222827167675	-0.5732628311524124	0.0	0.5510791493315863	-0.62339688968927	0.0	0.5554178452996341	-0.6229130344455709	0.0	0.5524760205047804	-0.5717699065306436	0.0	0.8549210906760067	-0.44315210724558773	0.0	0.9167636692376595	-0.5031279268491228	0.0	0.8627161882714378	-0.492238260084713	0.0	0.8435604625202647	-0.4386524927935967	0.0	0.7860840847554046	-0.5068008347427165	0.0	0.8145640600730126	-0.5850622749056307	0.0	0.8462711654052062	-0.42968681373481116	0.0	0.7877239269891194	-0.5067398759762177	0.0	0.8076551529006187	-0.5650292159584897	0.0
84	2.814	0.7069197240970007	-0.3895975542165175	0.0	0.7008413550841412	-0.3934728740472393	0.0	0.6928923652666465	-0.5329101184245462	0.0	0.5588355452695524	-0.5442116572176381	0.0	0.5362631774795767	-0.6095995312489465	0.0	0.5299495495129621	-0.5973553909270547	0.0	0.5356992877228872	-0.5339392874154519	0.0	0.7087953080319324	-0.39356646329363965	0.0	0.6939971015535153	-0.5240254099071268	0.0	0.5785442238065435	-0.5622080986676278	0.0	0.554674234984809	-0.6098389341772547	0.0	0.5586006830966994	-0.6103395295564561	0.0	0.5600202898536115	-0.561266491437	0.0	0.8595996510613706	-0.44707685100673844	0.0	0.9178710292424267	-0.5105430430551612	0.0	0.8641068116497014	-0.4976105762508206	0.0	0.8496586146148267	-0.44062404395993016	0.0	0.7897453271553958	-0.5067116480112519	0.0	0.8143501954307348	-0.585060991274452	0.0	0.8516973896462413	-0.43435643662513956	0.0	0.7915990360133516	-0.5078036405124814	0.0	0.8093886773702249	-0.5658905314771426	0.0
